<svg width="512" height="512" viewBox="0 0 512 512" fill="none" xmlns="http://www.w3.org/2000/svg">
<g clip-path="url(#clip0)">
<path d="M413.572 54.2898C319.629 -19.0794 187.478 -17.9018 94.8571 57.1299C2.23586 132.161 -26.3438 261.19 25.9298 368.316C78.2034 475.441 197.496 532.313 313.635 505.477C429.774 478.641 512.023 375.199 512 256C512.232 177.141 475.875 102.634 413.572 54.2898V54.2898Z" fill="#F44242"/>
<path d="M410.924 221.396C388.909 208.609 363.073 204.042 338.008 208.508C359.134 184.177 368.309 151.694 363.033 119.906C357.758 88.1194 338.583 60.3405 310.731 44.1379C332.941 66.288 339.611 99.6413 327.626 128.629C315.642 157.617 287.367 176.523 256 176.523C224.633 176.523 196.358 157.617 184.374 128.629C172.389 99.6413 179.059 66.288 201.269 44.1379C173.417 60.3405 154.242 88.1194 148.966 119.906C143.691 151.694 152.866 184.177 173.992 208.508C142.563 202.995 110.302 211.611 85.8061 232.058C61.3101 252.506 47.0678 282.707 46.8745 314.615C54.9329 284.517 80.2421 262.178 111.108 257.92C141.974 253.662 172.386 268.314 188.292 295.106L188.822 295.901C204.486 323.039 202.267 356.939 183.199 381.803C164.13 406.667 131.965 417.602 101.694 409.512C128.931 425.043 161.561 428.012 191.154 417.651C220.747 407.29 244.399 384.616 256 355.487C267.601 384.616 291.253 407.29 320.846 417.651C350.439 428.012 383.069 425.043 410.306 409.512C380.071 417.594 347.941 406.695 328.864 381.884C309.788 357.072 307.51 323.221 323.09 296.077C323.09 295.989 323.178 295.989 323.178 295.901C338.86 268.772 369.336 253.757 400.402 257.853C431.468 261.948 457.011 284.349 465.125 314.615C464.941 276.109 444.297 240.605 410.924 221.396V221.396ZM256 282.483C241.374 282.483 229.517 270.626 229.517 256C229.517 241.374 241.374 229.517 256 229.517C270.626 229.517 282.483 241.374 282.483 256C282.483 270.626 270.626 282.483 256 282.483V282.483Z" fill="#393F4A"/>
<path d="M410.306 409.512C383.069 425.043 350.439 428.012 320.846 417.651C291.253 407.29 267.601 384.616 256 355.487V282.483C265.064 282.522 273.506 277.884 278.334 270.212L323.09 296.077C307.51 323.221 309.788 357.072 328.864 381.884C347.941 406.695 380.071 417.594 410.306 409.512Z" fill="#464F5D"/>
<path d="M364.491 137.622C364.49 163.669 355.086 188.84 338.008 208.508L278.952 242.759C274.218 234.56 265.467 229.511 256 229.517V176.375C287.353 176.419 315.635 157.544 327.625 128.575C339.615 99.6053 332.944 66.2643 310.731 44.1379C344.027 63.4956 364.507 99.1081 364.491 137.622V137.622Z" fill="#464F5D"/>
<path d="M229.517 256C229.523 260.646 230.74 265.21 233.048 269.241L188.292 295.106C172.386 268.314 141.974 253.662 111.108 257.92C80.2421 262.178 54.9329 284.517 46.8745 314.615C47.0678 282.707 61.3101 252.506 85.8061 232.058C110.302 211.611 142.563 202.995 173.992 208.508L233.048 242.759C230.74 246.79 229.523 251.354 229.517 256Z" fill="#464F5D"/>
<path d="M41.3837 213.319C38.6778 213.321 36.1205 212.082 34.4451 209.957C32.7697 207.832 32.1613 205.056 32.7945 202.425C44.3912 154.83 70.801 112.146 108.217 80.5253C111.956 77.5613 117.373 78.1039 120.449 81.7506C123.525 85.3972 123.148 90.8282 119.596 94.0139C85.0561 123.214 60.6749 162.623 49.9641 206.566C49.0062 210.528 45.46 213.319 41.3837 213.319V213.319Z" fill="white"/>
</g>
<defs>
<clipPath id="clip0">
<rect width="512" height="512" fill="white"/>
</clipPath>
</defs>
</svg>
