<svg width="492" height="492" viewBox="0 0 492 492" fill="none" xmlns="http://www.w3.org/2000/svg">
<path d="M300.188 246L484.14 62.0401C489.2 56.9761 491.992 50.2201 492 43.0161C492 35.8081 489.208 29.0441 484.14 23.9881L468.02 7.87211C462.952 2.79611 456.196 0.0161133 448.984 0.0161133C441.784 0.0161133 435.028 2.79611 429.96 7.87211L246.008 191.82L62.048 7.87211C56.988 2.79611 50.228 0.0161133 43.02 0.0161133C35.82 0.0161133 29.06 2.79611 24 7.87211L7.872 23.9881C-2.624 34.4841 -2.624 51.5561 7.872 62.0401L191.828 246L7.872 429.952C2.808 435.024 0.02 441.78 0.02 448.984C0.02 456.188 2.808 462.944 7.872 468.012L23.996 484.128C29.056 489.2 35.82 491.984 43.016 491.984C50.224 491.984 56.984 489.2 62.044 484.128L246.004 300.176L429.956 484.128C435.024 489.2 441.78 491.984 448.98 491.984H448.988C456.192 491.984 462.948 489.2 468.016 484.128L484.136 468.012C489.196 462.948 491.988 456.188 491.988 448.984C491.988 441.78 489.196 435.024 484.136 429.956L300.188 246Z" fill="#F44242"/>
</svg>
